<?xml version="1.0" encoding="UTF-8"?>
<svg viewBox="0 0 860 926" version="1.1" xmlns="http://www.w3.org/2000/svg" xmlns:xlink="http://www.w3.org/1999/xlink">
    <title>Group</title>
    <g id="Logo-&amp;-Icon" stroke="none" stroke-width="1" fill="none" fill-rule="evenodd">
        <g id="Group" fill="#0F556D">
            <path d="M361.588635,423.338084 C349.10729,454.088355 353.220929,541.246131 353.220929,574.502766 C353.220929,602.434513 331.847892,621.89602 306.653251,621.89602 C278.987493,621.89602 260.158932,598.564279 260.158932,574.15918 L260.085574,82.658347 C260.085574,58.5053507 279.684743,36.1100915 306.653251,36.1100915 C331.726327,36.1100915 353.220929,55.0715832 353.220929,82.658347 L353.220929,275.643482 C353.220929,320.279666 385.015696,352.303721 400.427869,361.517 C382.449563,379.229151 369.377162,399.483979 361.588635,423.338084 M562.043928,349.907867 C522.631911,326.411528 474.022289,321.191128 431.788296,341.467231 C406.057486,329.927877 389.305756,312.477425 389.314134,278.004627 L388.960165,81.999737 C388.960165,37.4988833 352.472753,0 306.986017,0 C266.886308,0 225,33.7045779 225,79.6657469 L225.011171,573.999556 C225.011171,614.652329 257.35987,656.015356 306.986017,656 C356.597502,655.984627 388.960165,615.736217 388.960165,573.999556 C388.960165,559.033944 388.650879,487.474308 389.314832,471.044889 C389.309247,445.419186 397.498004,420.995396 412.923923,400.625012 C426.219745,382.69966 445.70688,368.974373 468.265933,364.633934 C495.611594,359.345093 520.471095,364.70028 543.870737,378.646954 C578.605758,399.226154 600.183194,436.711768 600.183194,476.479692 L600.299787,620.32109 L552.730429,621.264603 C524.735477,621.264603 506.047041,596.694852 506.047041,573.997461 C506.047041,549.938925 505.268589,447.290149 505.268589,446.581991 C505.268589,422.641481 494.461719,398.816903 477.646455,379.469647 C465.109536,380.743494 452.776481,385.486201 442.820672,392.741684 C458.834444,407.786912 471.234523,429.032368 471.234523,449.043086 L471.234523,573.997461 C471.234523,616.20064 504.18853,656 552.614534,656 C553.076718,656 634.538415,655.752764 635,655.847744 L635,476.479692 C635.367134,425.738802 606.929546,376.077609 562.043928,349.907867" id="Path"></path>
            <path d="M237.577372,766.590376 C262.726753,766.597937 281.201382,777.205587 286.3643,792.054786 L286.3643,769.932202 L305.390748,769.932202 C314.99283,769.932202 322.776855,777.717787 322.776855,787.321793 L322.776855,922.695978 L302.367077,922.695978 C293.520638,922.695978 286.349181,915.523084 286.349181,906.674872 L286.349181,900.565833 C281.201382,915.415032 262.726753,926 237.577372,926 C216.063954,926 197.881614,918.439308 183.030351,903.317925 C168.486495,887.85631 161.214566,869.067991 161.214566,846.332991 C161.214566,823.597991 168.486495,804.809673 183.030351,789.627804 C197.876574,774.166189 216.063954,766.590376 237.577372,766.590376 Z M668.745265,711.43513 C674.962793,711.43513 680.004265,716.474227 680.008438,722.693 L680.008438,922.695978 L658.290923,922.695978 C650.198903,922.691804 643.641237,916.129439 643.641238,908.035796 L643.641238,900.565833 C638.493438,915.415032 620.003692,926 594.85431,926 C573.335853,926 555.153513,918.424187 540.307289,903.272561 C525.755874,887.810946 518.483946,869.022627 518.483946,846.287627 C518.483946,823.552627 525.755874,804.764308 540.307289,789.582439 C555.153513,774.120825 573.333333,766.545012 594.85431,766.545012 C620.003692,766.597937 638.493438,777.205587 643.641238,792.054786 L643.641238,711.43513 L668.745265,711.43513 Z M18.8979423,711.435103 C23.4467927,711.427102 27.8121929,713.228344 31.0322636,716.441969 C34.2523344,719.655595 36.0628337,724.017889 36.0648331,728.567657 L36.0648331,791.147503 C43.0343943,776.600732 59.7174977,766.900364 80.6110628,766.900364 C115.761235,766.900364 136.367552,790.24022 136.367552,828.141967 L136.367552,922.695978 L125.119497,922.695978 C111.413569,922.695978 100.302719,911.582901 100.302719,897.874227 L100.302719,833.275677 C100.302719,812.362804 89.0924593,799.328171 69.6956113,799.328171 C50.0417513,799.328171 36.0648331,813.882503 36.0648331,834.795376 L36.0648331,922.695978 L19.4875581,922.695978 C8.72487696,922.695978 5.68434189e-14,913.969352 5.68434189e-14,903.204514 L5.68434189e-14,711.435103 L18.8979423,711.435103 Z M436.670974,766.900364 C473.030615,766.900364 494.551591,790.24022 494.551591,828.141967 L494.551591,922.695978 L475.283249,922.695978 C465.838588,922.691803 458.18439,915.032687 458.184391,905.586132 L458.184391,833.275677 C458.184391,812.362804 446.089708,799.328171 425.755522,799.328171 C405.149206,799.328171 390.302982,813.882503 390.302982,834.795376 L390.302982,922.695978 L369.794935,922.695978 C361.204888,922.691806 354.24232,915.727843 354.238149,907.136074 L354.238149,769.932202 L376.560399,769.932202 C384.150218,769.932202 390.302982,776.086199 390.302982,783.677539 L390.302982,791.752358 C397.612706,776.903159 414.84763,766.900364 436.670974,766.900364 Z M748.184655,769.939762 L748.184655,922.695997 L725.45421,922.695997 C721.837676,922.702012 718.367531,921.267732 715.810252,918.709941 C713.252973,916.15215 711.818981,912.681309 711.824995,909.064051 L711.824995,769.939762 L748.184655,769.939762 Z M814.667616,711.43513 C821.462492,711.439301 826.969786,716.947698 826.973956,723.743936 L826.973956,769.932202 L860,769.932202 L860,802.972424 L826.973956,802.972424 L826.973956,922.695978 L807.320096,922.695978 C798.087637,922.675133 790.614291,915.183378 790.614315,905.949046 L790.614315,802.972424 L770.9151,802.972424 L770.9151,769.932202 L790.614315,769.932202 L790.614315,711.43513 L814.667616,711.43513 Z M242.422804,799.630599 C229.390783,799.630599 218.785258,804.167014 210.001494,812.967659 C201.512539,821.760743 197.294518,833.003492 197.294518,846.310309 C197.294518,859.617127 201.535216,870.859875 210.024172,879.65296 C218.807935,888.446044 229.42102,892.99002 242.445482,892.99002 C255.469943,892.99002 266.665085,888.446044 275.456407,879.65296 C284.52742,870.859875 289.062926,859.64737 289.062926,846.310309 C289.062926,832.973249 284.52742,821.760743 275.456407,812.967659 C266.665085,804.182135 255.454825,799.630599 242.422804,799.630599 Z M599.669506,799.630599 C586.637485,799.630599 576.031959,804.167014 567.248196,812.967659 C558.75924,821.760743 554.518542,832.973249 554.518542,846.310309 C554.518542,859.64737 558.75924,870.859875 567.248196,879.65296 C576.031959,888.446044 586.637485,892.99002 599.669506,892.99002 C612.701527,892.99002 623.942023,888.446044 632.703109,879.65296 C641.774121,870.859875 646.309627,859.64737 646.309627,846.310309 C646.309627,832.973249 641.774121,821.760743 632.703109,812.967659 C623.911786,804.182135 612.701527,799.630599 599.669506,799.630599 Z M747.2457,717.691662 C752.091241,724.217234 752.84834,732.916378 749.202997,740.18122 C745.557655,747.446062 738.131649,752.037454 730.004834,752.051166 C717.91771,752.051166 708.241964,742.69859 708.18905,730.624165 C708.240317,720.066179 715.876932,711.075246 726.285719,709.318136 C734.292667,707.927142 742.400158,711.166089 747.2457,717.691662 Z" id="handit" fill-rule="nonzero"></path>
        </g>
    </g>
</svg>