<svg viewBox="0 0 588 940" version="1.1" xmlns="http://www.w3.org/2000/svg" xmlns:xlink="http://www.w3.org/1999/xlink"><g stroke="none" stroke-width="1" fill="none" fill-rule="evenodd"><g transform="translate(-218.000000, -42.000000)" fill="#0F556D"><path d="M414.310684,647.693379 C396.423024,691.75849 402.318492,816.655505 402.318492,864.312233 C402.318492,904.338401 371.687689,932.226723 335.579949,932.226723 C295.930722,932.226723 268.946538,898.792359 268.946538,863.819874 L268.841405,159.499624 C268.841405,124.888402 296.929987,92.7960159 335.579949,92.7960159 C371.513469,92.7960159 402.318492,119.967816 402.318492,159.499624 L402.318492,436.047149 C402.318492,500.01076 447.885215,545.901201 469.973196,559.103822 C444.207557,584.485318 425.472824,613.510469 414.310684,647.693379 M701.370327,543.392373 C644.847725,509.723838 575.134413,502.243387 514.564684,531.297559 C477.662937,514.76251 453.638504,489.757288 453.650519,440.360292 L453.142876,159.499624 C453.142876,95.7331563 400.814587,42 335.579949,42 C278.071097,42 218,90.2961943 218,156.155187 L218.01602,864.499369 C218.01602,922.751819 264.40879,982.02201 335.579949,982 C406.730081,981.977978 453.142876,924.304951 453.142876,864.499369 C453.142876,843.054742 452.699314,740.51502 453.65152,716.972864 C453.64351,680.253106 465.387387,645.255603 487.510412,616.066332 C506.578567,590.380614 534.525971,570.713282 566.878955,564.49375 C606.096635,556.915227 641.748799,564.588819 675.307311,584.573382 C725.122416,614.061871 756.067617,667.776014 756.067617,724.760539 L756.234828,930.874738 L688.013407,932.226723 C647.864547,932.226723 621.062594,897.020068 621.062594,864.496367 C621.062594,830.022245 619.94618,682.934059 619.94618,681.91932 C619.94618,647.614321 604.447546,613.475444 580.331997,585.752241 C562.352221,587.577572 544.664815,594.373524 530.386727,604.7701 C553.35282,626.32881 571.136348,656.771995 571.136348,685.44589 L571.136348,864.496367 C571.136348,924.970435 618.397218,982 687.847196,982 C688.510036,982 805.338032,981.645736 806,981.781835 L806,724.760539 C806.526537,652.052556 765.742873,580.891699 701.370327,543.392373" id="Path"></path></g></g></svg>