<!-- Generated by IcoMoon.io -->
<svg version="1.1" xmlns="http://www.w3.org/2000/svg" width="32" height="32" fill="#A8A8A8" viewBox="0 0 32 32">
<path d="M25.6 22.528c-0.224-0.256-0.256-0.64-0.064-0.928 1.408-2.176 2.208-4.736 2.208-7.52 0-7.648-6.208-13.888-13.856-13.888s-13.888 6.24-13.888 13.888c0 7.648 6.24 13.888 13.888 13.888 2.976 0 5.728-0.96 8-2.56 0.256-0.192 0.672-0.192 0.896 0.064l4.96 4.96c0.032 0.032 0.064 0.064 0.096 0.096 0.064 0.032 0.288 0.256 0.544 0.48l0.576 0.608c0.224 0.224 0.608 0.224 0.832 0l2.048-2.048c0.224-0.224 0.224-0.608 0-0.832l-6.24-6.208zM22.272 20.544c-0.448 0.608-0.96 1.152-1.536 1.632-1.856 1.568-4.256 2.528-6.848 2.528-5.856 0-10.624-4.768-10.624-10.624s4.768-10.624 10.624-10.624c5.856 0 10.592 4.768 10.592 10.624 0 2.432-0.832 4.672-2.208 6.464z"></path>
</svg>
